# xmcd
#
# Track frame offsets:
#	180
#	14400
#	28765
#	42455
#	55560
#	69050
#	82590
#	97000
#	111855
#	124980
#	150995
#	163960
#	174925
#	189575
#	203760
#	216715
#	227015
#	238835
#
# Disc length: 3337 seconds
#
# Revision: 1
# Processed by: cddbd v1.4PL0 Copyright (c) Steve Scherf et al.
# Submitted via: audiograbber 1.81.03
#
DISCID=ee0d0712
DTITLE=Mahalia Jackson - Les Plus grands thèmes
DYEAR=1991
DGENRE=Negro spiritual
TTITLE0=I gave up everything to follow him
TTITLE1=Bless this house
TTITLE2=Go tell it on the mountain
TTITLE3=Silent night - Holy night
TTITLE4=The lord's prayer
TTITLE5=Jesus is with me
TTITLE6=I bow on my knees
TTITLE7=City called heaven
TTITLE8=It is not secret
TTITLE9=In the upper room
TTITLE10=He's my light
TTITLE11=Beautiful tomorrow
TTITLE12=Come to Jesus
TTITLE13=Hands of God
TTITLE14=What then
TTITLE15=Run all the way
TTITLE16=Nobody knows
TTITLE17=I believe
EXTD=
EXTT0=
EXTT1=
EXTT2=
EXTT3=
EXTT4=
EXTT5=
EXTT6=
EXTT7=
EXTT8=
EXTT9=
EXTT10=
EXTT11=
EXTT12=
EXTT13=
EXTT14=
EXTT15=
EXTT16=
EXTT17=
PLAYORDER=
